{
  "accessors": [
    {
      "bufferView": 0,
      "byteOffset": 0,
      "componentType": 5123,
      "count": 2304,
      "max": [
        2267.0
      ],
      "min": [
        0.0
      ],
      "name": "buffer-0-group-0-mesh-0-indices",
      "type": "SCALAR"
    },
    {
      "bufferView": 1,
      "byteOffset": 0,
      "componentType": 5126,
      "count": 2268,
      "max": [
        0.8067359924316406,
        3.039794921875,
        1.160194993019104
      ],
      "min": [
        -0.7007420063018799,
        0.7803000211715698,
        -1.4950230121612549
      ],
      "name": "buffer-0-group-0-mesh-0-position",
      "type": "VEC3"
    },
    {
      "bufferView": 1,
      "byteOffset": 27216,
      "componentType": 5126,
      "count": 2268,
      "max": [
        0.9992064833641052,
        0.9995343089103699,
        0.9989938735961914
      ],
      "min": [
        -0.9982997179031372,
        -0.9974482655525208,
        -0.9956936240196228
      ],
      "name": "buffer-0-group-0-mesh-0-normal",
      "type": "VEC3"
    },
    {
      "bufferView": 2,
      "byteOffset": 0,
      "componentType": 5126,
      "count": 2268,
      "max": [
        0.41909998655319214,
        0.367900013923645
      ],
      "min": [
        -0.4296000003814697,
        -0.42750000953674316
      ],
      "name": "buffer-0-group-0-mesh-0-texcoord",
      "type": "VEC2"
    },
    {
      "bufferView": 0,
      "byteOffset": 4608,
      "componentType": 5123,
      "count": 2322,
      "max": [
        1603.0
      ],
      "min": [
        0.0
      ],
      "name": "buffer-0-group-1-mesh-0-indices",
      "type": "SCALAR"
    },
    {
      "bufferView": 1,
      "byteOffset": 54432,
      "componentType": 5126,
      "count": 1604,
      "max": [
        0.35375699400901794,
        1.6751110553741455,
        0.9779679775238037
      ],
      "min": [
        -0.32275599241256714,
        -0.0,
        -1.2562949657440186
      ],
      "name": "buffer-0-group-1-mesh-0-position",
      "type": "VEC3"
    },
    {
      "bufferView": 1,
      "byteOffset": 73680,
      "componentType": 5126,
      "count": 1604,
      "max": [
        0.9999502301216125,
        0.9974482655525208,
        0.9999593496322632
      ],
      "min": [
        -0.9999154806137085,
        -1.0,
        -0.9992190003395081
      ],
      "name": "buffer-0-group-1-mesh-0-normal",
      "type": "VEC3"
    },
    {
      "bufferView": 2,
      "byteOffset": 18144,
      "componentType": 5126,
      "count": 1604,
      "max": [
        0.367900013923645,
        0.2736999988555908
      ],
      "min": [
        -0.3571000099182129,
        -0.3402000069618225
      ],
      "name": "buffer-0-group-1-mesh-0-texcoord",
      "type": "VEC2"
    }
  ],
  "asset": {
    "generator": "Obj2GltfConverter",
    "version": "2.0"
  },
  "bufferViews": [
    {
      "buffer": 0,
      "byteLength": 9252,
      "byteOffset": 0,
      "name": "buffer-0-bufferview-ushort",
      "target": 34963
    },
    {
      "buffer": 0,
      "byteLength": 92928,
      "byteOffset": 9252,
      "byteStride": 12,
      "name": "buffer-0-bufferview-vec3",
      "target": 34962
    },
    {
      "buffer": 0,
      "byteLength": 30976,
      "byteOffset": 102184,
      "byteStride": 8,
      "name": "buffer-0-bufferview-vec2",
      "target": 34962
    }
  ],
  "buffers": [
    {
      "byteLength": 133160,
      "name": "buffer-0",
      "uri": "trees.bin"
    }
  ],
  "materials": [
    {
      "alphaMode": "OPAQUE",
      "doubleSided": true,
      "name": "mat13",
      "pbrMetallicRoughness": {
        "baseColorFactor": [
          1.0,
          0.6,
          0.0,
          1.0
        ],
        "metallicFactor": 0.0,
        "roughnessFactor": 0.7448017359246658
      }
    },
    {
      "alphaMode": "OPAQUE",
      "doubleSided": true,
      "name": "mat23",
      "pbrMetallicRoughness": {
        "baseColorFactor": [
          0.1,
          0.1,
          0.1,
          1.0
        ],
        "metallicFactor": 0.0,
        "roughnessFactor": 0.7448017359246658
      }
    }
  ],
  "meshes": [
    {
      "name": "buffer-0-mesh-0",
      "primitives": [
        {
          "attributes": {
            "POSITION": 1,
            "NORMAL": 2,
            "TEXCOORD_0": 3
          },
          "indices": 0,
          "material": 0,
          "mode": 4
        },
        {
          "attributes": {
            "POSITION": 5,
            "NORMAL": 6,
            "TEXCOORD_0": 7
          },
          "indices": 4,
          "material": 1,
          "mode": 4
        }
      ]
    }
  ],
  "nodes": [
    {
      "mesh": 0,
      "name": "node-0"
    }
  ],
  "scenes": [
    {
      "name": "scene-0",
      "nodes": [
        0
      ]
    }
  ]
}